<?xml version="1.0" encoding="utf-8"?>
<svg version="1.1" xmlns:xlink="http://www.w3.org/1999/xlink" width="18px" height="18px" xmlns="http://www.w3.org/2000/svg">
  <g transform="matrix(1 0 0 1 -1345 -460 )">
    <path d="M 7.5 13.9453125  C 7.703125 13.9453125  7.87890625 13.87109375  8.02734375 13.72265625  L 15.22265625 6.52734375  C 15.37109375 6.37890625  15.4453125 6.203125  15.4453125 6  C 15.4453125 5.796875  15.37109375 5.62109375  15.22265625 5.47265625  L 14.02734375 4.27734375  C 13.87890625 4.12890625  13.703125 4.0546875  13.5 4.0546875  C 13.296875 4.0546875  13.12109375 4.12890625  12.97265625 4.27734375  L 7.5 9.75  L 5.02734375 7.27734375  C 4.87890625 7.12890625  4.703125 7.0546875  4.5 7.0546875  C 4.296875 7.0546875  4.12109375 7.12890625  3.97265625 7.27734375  L 2.77734375 8.47265625  C 2.62890625 8.62109375  2.5546875 8.796875  2.5546875 9  C 2.5546875 9.203125  2.62890625 9.37890625  2.77734375 9.52734375  L 6.97265625 13.72265625  C 7.12109375 13.87109375  7.296875 13.9453125  7.5 13.9453125  Z M 17.009765625 0.990234375000001  C 17.669921875 1.650390625  18 2.4453125  18 3.375  L 18 14.625  C 18 15.5546875  17.669921875 16.349609375  17.009765625 17.009765625  C 16.349609375 17.669921875  15.5546875 18  14.625 18  L 3.375 18  C 2.4453125 18  1.650390625 17.669921875  0.990234375 17.009765625  C 0.330078125 16.349609375  0 15.5546875  0 14.625  L 0 3.375  C 0 2.4453125  0.330078125 1.650390625  0.990234375 0.990234375000001  C 1.650390625 0.330078124999999  2.4453125 0  3.375 0  L 14.625 0  C 15.5546875 0  16.349609375 0.330078124999999  17.009765625 0.990234375000001  Z " fill-rule="nonzero" fill="#02a7f0" stroke="none" transform="matrix(1 0 0 1 1345 460 )" />
  </g>
</svg>