<?xml version="1.0" encoding="utf-8"?>
<svg version="1.1" xmlns:xlink="http://www.w3.org/1999/xlink" width="31px" height="31px" xmlns="http://www.w3.org/2000/svg">
  <g transform="matrix(1 0 0 1 -815 -629 )">
    <path d="M 17.9016927083333 25.6516927083333  C 18.0227864583333 25.5305989583333  18.0833333333333 25.3758680555556  18.0833333333333 25.1875  L 18.0833333333333 21.3125  C 18.0833333333333 21.1241319444444  18.0227864583333 20.9694010416667  17.9016927083333 20.8483072916667  C 17.7805989583333 20.7272135416667  17.6258680555556 20.6666666666667  17.4375 20.6666666666667  L 13.5625 20.6666666666667  C 13.3741319444444 20.6666666666667  13.2194010416667 20.7272135416667  13.0983072916667 20.8483072916667  C 12.9772135416667 20.9694010416667  12.9166666666667 21.1241319444444  12.9166666666667 21.3125  L 12.9166666666667 25.1875  C 12.9166666666667 25.3758680555556  12.9772135416667 25.5305989583333  13.0983072916667 25.6516927083333  C 13.2194010416667 25.7727864583333  13.3741319444444 25.8333333333333  13.5625 25.8333333333333  L 17.4375 25.8333333333333  C 17.6258680555556 25.8333333333333  17.7805989583333 25.7727864583333  17.9016927083333 25.6516927083333  Z M 22.9977213541667 13.259765625  C 23.1659071180556 12.7619357638889  23.25 12.2170138888889  23.25 11.625  C 23.25 10.4409722222222  22.8766276041667 9.34440104166667  22.1298828125 8.33528645833333  C 21.3831380208333 7.326171875  20.4513888888889 6.54578993055555  19.3346354166667 5.994140625  C 18.2178819444444 5.44249131944444  17.07421875 5.16666666666667  15.9036458333333 5.16666666666667  C 12.6341145833333 5.16666666666667  10.1382378472222 6.599609375  8.416015625 9.46549479166667  C 8.21419270833333 9.78841145833333  8.26801215277778 10.0709635416667  8.57747395833333 10.3131510416667  L 11.2415364583333 12.3313802083333  C 11.3357204861111 12.412109375  11.4635416666667 12.4524739583333  11.625 12.4524739583333  C 11.8402777777778 12.4524739583333  12.0084635416667 12.3717447916667  12.1295572916667 12.2102864583333  C 12.8426649305556 11.2953559027778  13.4212239583333 10.6764322916667  13.865234375 10.353515625  C 14.3226996527778 10.0305989583333  14.9012586805556 9.869140625  15.6009114583333 9.869140625  C 16.2467447916667 9.869140625  16.8219401041667 10.0440538194444  17.3264973958333 10.3938802083333  C 17.8310546875 10.7437065972222  18.0833333333333 11.140625  18.0833333333333 11.5846354166667  C 18.0833333333333 12.0959201388889  17.9487847222222 12.5062934027778  17.6796875 12.8157552083333  C 17.4105902777778 13.1252170138889  16.953125 13.4279513888889  16.3072916666667 13.7239583333333  C 15.4596354166667 14.1006944444444  14.6826171875 14.6826171875  13.9762369791667 15.4697265625  C 13.2698567708333 16.2568359375  12.9166666666667 17.1011284722222  12.9166666666667 18.0026041666667  L 12.9166666666667 18.7291666666667  C 12.9166666666667 18.9175347222222  12.9772135416667 19.072265625  13.0983072916667 19.193359375  C 13.2194010416667 19.314453125  13.3741319444444 19.375  13.5625 19.375  L 17.4375 19.375  C 17.6258680555556 19.375  17.7805989583333 19.314453125  17.9016927083333 19.193359375  C 18.0227864583333 19.072265625  18.0833333333333 18.9175347222222  18.0833333333333 18.7291666666667  C 18.0833333333333 18.4735243055556  18.2279730902778 18.1405164930556  18.5172526041667 17.7301432291667  C 18.8065321180556 17.3197699652778  19.1731770833333 16.9867621527778  19.6171875 16.7311197916667  C 20.0477430555556 16.4889322916667  20.3773871527778 16.2972005208333  20.6061197916667 16.1559244791667  C 20.8348524305556 16.0146484375  21.1443142361111 15.7791883680556  21.5345052083333 15.4495442708333  C 21.9246961805556 15.1199001736111  22.2240668402778 14.7969835069444  22.4326171875 14.4807942708333  C 22.6411675347222 14.1646050347222  22.8295355902778 13.7575954861111  22.9977213541667 13.259765625  Z M 28.9212239583333 7.7197265625  C 30.3070746527778 10.0945095486111  31 12.6879340277778  31 15.5  C 31 18.3120659722222  30.3070746527778 20.9054904513889  28.9212239583333 23.2802734375  C 27.5353732638889 25.6550564236111  25.6550564236111 27.5353732638889  23.2802734375 28.9212239583333  C 20.9054904513889 30.3070746527778  18.3120659722222 31  15.5 31  C 12.6879340277778 31  10.0945095486111 30.3070746527778  7.7197265625 28.9212239583333  C 5.34494357638889 27.5353732638889  3.46462673611111 25.6550564236111  2.07877604166667 23.2802734375  C 0.692925347222222 20.9054904513889  0 18.3120659722222  0 15.5  C 0 12.6879340277778  0.692925347222222 10.0945095486111  2.07877604166667 7.7197265625  C 3.46462673611111 5.34494357638889  5.34494357638889 3.46462673611111  7.7197265625 2.07877604166667  C 10.0945095486111 0.69292534722222  12.6879340277778 0  15.5 0  C 18.3120659722222 0  20.9054904513889 0.69292534722222  23.2802734375 2.07877604166667  C 25.6550564236111 3.46462673611111  27.5353732638889 5.34494357638889  28.9212239583333 7.7197265625  Z " fill-rule="nonzero" fill="#7f7f7f" stroke="none" transform="matrix(1 0 0 1 815 629 )" />
  </g>
</svg>