<?xml version="1.0" encoding="utf-8"?>
<svg version="1.1" xmlns:xlink="http://www.w3.org/1999/xlink" width="78px" height="129px" xmlns="http://www.w3.org/2000/svg">
  <g transform="matrix(1 0 0 1 -796 -1039 )">
    <path d="M 53.2060546875 30.06640625  C 55.1103515625 32.1940104166668  56.0625 34.7135416666668  56.0625 37.625  C 56.0625 38.3528645833333  55.8212890625 38.9827473958333  55.3388671875 39.5146484375  C 54.8564453125 40.0465494791668  30.9765625 55.513671875  30.31640625 55.513671875  C 29.65625 55.513671875  52.3935546875 40.0465494791668  51.9111328125 39.5146484375  C 51.4287109375 38.9827473958333  51.1875 38.3528645833333  51.1875 37.625  C 51.1875 35.0494791666668  49.81640625 33.0618489583333  47.07421875 31.662109375  C 44.33203125 30.2623697916668  41.640625 29.5625  39 29.5625  C 38.33984375 29.5625  37.7685546875 29.2965494791667  37.2861328125 28.7646484375  C 36.8037109375 28.2327473958333  36.5625 27.6028645833333  36.5625 26.875  C 36.5625 26.1471354166667  36.8037109375 25.5172526041667  37.2861328125 24.9853515625  C 37.7685546875 24.4534505208333  38.33984375 24.1875  39 24.1875  C 41.5390625 24.1875  44.0654296875 24.6354166666667  46.5791015625 25.53125  C 49.0927734375 26.4270833333333  51.3017578125 27.9388020833333  53.2060546875 30.06640625  Z M 63.0703125 52.7421875  C 66.5234375 48.3190104166668  68.25 43.2799479166668  68.25 37.625  C 68.25 33.59375  67.3740234375 29.8424479166668  65.6220703125 26.37109375  C 63.8701171875 22.8997395833333  61.5849609375 20.0582682291668  58.7666015625 17.8466796875  C 55.9482421875 15.6350911458333  52.8251953125 13.8994140625  49.3974609375 12.6396484375  C 45.9697265625 11.3798828125  42.50390625 10.75  39 10.75  C 35.49609375 10.75  32.0302734375 11.3798828125  28.6025390625 12.6396484375  C 25.1748046875 13.8994140625  22.0517578125 15.6350911458333  19.2333984375 17.8466796875  C 16.4150390625 20.0582682291668  14.1298828125 22.8997395833333  12.3779296875 26.37109375  C 10.6259765625 29.8424479166668  9.75 33.59375  9.75 37.625  C 9.75 43.2799479166668  11.4765625 48.3190104166668  14.9296875 52.7421875  C 15.4375 53.3580729166668  16.2119140625 54.2819010416668  17.2529296875 55.513671875  C 18.2939453125 56.7454427083333  19.068359375 57.6692708333333  19.576171875 58.28515625  C 26.076171875 66.8515625  29.65625 75.1940104166667  30.31640625 83  L 47.68359375 83  C 48.34375 75.1940104166667  51.923828125 66.8515625  58.423828125 58.28515625  C 58.931640625 57.6692708333333  59.7060546875 56.7454427083333  60.7470703125 55.513671875  C 61.7880859375 54.2819010416668  62.5625 53.3580729166668  63.0703125 52.7421875  Z M 74.6103515625 22.1298828125  C 76.8701171875 26.9169921875  78 32.08203125  78 37.625  C 78 46.3033854166668  75.384765625 53.8059895833333  70.154296875 60.1328125  C 67.869140625 62.8763020833333  65.9775390625 65.3118489583332  64.4794921875 67.439453125  C 62.9814453125 69.5670572916667  61.470703125 72.2405598958332  59.947265625 75.4599609375  C 58.423828125 78.6793619791668  57.560546875 81.6888020833332  57.357421875 84.48828125  C 59.744140625 86.0559895833333  60.9375 88.3515625  60.9375 91.375  C 60.9375 93.4466145833333  60.302734375 95.23828125  59.033203125 96.75  C 60.302734375 98.26171875  60.9375 100.053385416667  60.9375 102.125  C 60.9375 105.036458333333  59.794921875 107.304036458333  57.509765625 108.927734375  C 58.169921875 110.215494791667  58.5 111.53125  58.5 112.875  C 58.5 115.450520833333  57.7001953125 117.438151041667  56.1005859375 118.837890625  C 54.5009765625 120.237630208333  52.533203125 120.9375  50.197265625 120.9375  C 49.181640625 123.401041666667  47.658203125 125.360677083333  45.626953125 126.81640625  C 43.595703125 128.272135416667  41.38671875 129  39 129  C 36.61328125 129  34.404296875 128.272135416667  32.373046875 126.81640625  C 30.341796875 125.360677083333  28.818359375 123.401041666667  27.802734375 120.9375  C 25.466796875 120.9375  23.4990234375 120.237630208333  21.8994140625 118.837890625  C 20.2998046875 117.438151041667  19.5 115.450520833333  19.5 112.875  C 19.5 111.53125  19.830078125 110.215494791667  20.490234375 108.927734375  C 18.205078125 107.304036458333  17.0625 105.036458333333  17.0625 102.125  C 17.0625 100.053385416667  17.697265625 98.26171875  18.966796875 96.75  C 17.697265625 95.23828125  17.0625 93.4466145833333  17.0625 91.375  C 17.0625 88.3515625  18.255859375 86.0559895833333  20.642578125 84.48828125  C 20.439453125 81.6888020833332  19.576171875 78.6793619791668  18.052734375 75.4599609375  C 16.529296875 72.2405598958332  15.0185546875 69.5670572916667  13.5205078125 67.439453125  C 12.0224609375 65.3118489583332  10.130859375 62.8763020833333  7.845703125 60.1328125  C 2.615234375 53.8059895833333  0 46.3033854166668  0 37.625  C 0 32.08203125  1.1298828125 26.9169921875  3.3896484375 22.1298828125  C 5.6494140625 17.3427734375  8.6201171875 13.3675130208333  12.3017578125 10.2041015625  C 15.9833984375 7.04069010416675  20.1474609375 4.54915364583325  24.7939453125 2.7294921875  C 29.4404296875 0.909830729166748  34.17578125 0  39 0  C 43.82421875 0  48.5595703125 0.909830729166748  53.2060546875 2.7294921875  C 57.8525390625 4.54915364583325  62.0166015625 7.04069010416675  65.6982421875 10.2041015625  C 69.3798828125 13.3675130208333  72.3505859375 17.3427734375  74.6103515625 22.1298828125  Z " fill-rule="nonzero" fill="#8080ff" stroke="none" transform="matrix(1 0 0 1 796 1039 )" />
  </g>
</svg>