<?xml version="1.0" encoding="utf-8"?>
<svg version="1.1" xmlns:xlink="http://www.w3.org/1999/xlink" width="9px" height="15px" xmlns="http://www.w3.org/2000/svg">
  <g transform="matrix(1 0 0 1 -1194 -364 )">
    <path d="M 6.13916015625 3.49609375  C 6.35888671875 3.74348958333333  6.46875 4.03645833333333  6.46875 4.375  C 6.46875 4.45963541666667  6.44091796875 4.53287760416667  6.38525390625 4.5947265625  C 6.32958984375 4.65657552083333  6.263671875 4.6875  6.1875 4.6875  C 6.111328125 4.6875  6.04541015625 4.65657552083333  5.98974609375 4.5947265625  C 5.93408203125 4.53287760416667  5.90625 4.45963541666667  5.90625 4.375  C 5.90625 4.07552083333333  5.748046875 3.84440104166667  5.431640625 3.681640625  C 5.115234375 3.51888020833333  4.8046875 3.4375  4.5 3.4375  C 4.423828125 3.4375  4.35791015625 3.40657552083333  4.30224609375 3.3447265625  C 4.24658203125 3.28287760416666  4.21875 3.20963541666666  4.21875 3.125  C 4.21875 3.04036458333333  4.24658203125 2.96712239583333  4.30224609375 2.9052734375  C 4.35791015625 2.84342447916666  4.423828125 2.8125  4.5 2.8125  C 4.79296875 2.8125  5.08447265625 2.86458333333333  5.37451171875 2.96875  C 5.66455078125 3.07291666666667  5.91943359375 3.24869791666667  6.13916015625 3.49609375  Z M 7.27734375 6.1328125  C 7.67578125 5.61848958333333  7.875 5.03255208333333  7.875 4.375  C 7.875 3.90625  7.77392578125 3.47005208333333  7.57177734375 3.06640625  C 7.36962890625 2.66276041666667  7.10595703125 2.33235677083333  6.78076171875 2.0751953125  C 6.45556640625 1.81803385416666  6.09521484375 1.6162109375  5.69970703125 1.4697265625  C 5.30419921875 1.3232421875  4.904296875 1.25  4.5 1.25  C 4.095703125 1.25  3.69580078125 1.3232421875  3.30029296875 1.4697265625  C 2.90478515625 1.6162109375  2.54443359375 1.81803385416666  2.21923828125 2.0751953125  C 1.89404296875 2.33235677083333  1.63037109375 2.66276041666667  1.42822265625 3.06640625  C 1.22607421875 3.47005208333333  1.125 3.90625  1.125 4.375  C 1.125 5.03255208333333  1.32421875 5.61848958333333  1.72265625 6.1328125  C 1.78125 6.20442708333333  1.87060546875 6.31184895833333  1.99072265625 6.455078125  C 2.11083984375 6.59830729166667  2.2001953125 6.70572916666667  2.2587890625 6.77734375  C 3.0087890625 7.7734375  3.421875 8.74348958333333  3.498046875 9.6875  L 5.501953125 9.6875  C 5.578125 8.74348958333333  5.9912109375 7.7734375  6.7412109375 6.77734375  C 6.7998046875 6.70572916666667  6.88916015625 6.59830729166667  7.00927734375 6.455078125  C 7.12939453125 6.31184895833333  7.21875 6.20442708333333  7.27734375 6.1328125  Z M 8.60888671875 2.5732421875  C 8.86962890625 3.1298828125  9 3.73046875  9 4.375  C 9 5.38411458333333  8.6982421875 6.25651041666667  8.0947265625 6.9921875  C 7.8310546875 7.31119791666667  7.61279296875 7.59440104166667  7.43994140625 7.841796875  C 7.26708984375 8.08919270833333  7.0927734375 8.40006510416666  6.9169921875 8.7744140625  C 6.7412109375 9.14876302083333  6.6416015625 9.49869791666666  6.6181640625 9.82421875  C 6.8935546875 10.0065104166667  7.03125 10.2734375  7.03125 10.625  C 7.03125 10.8658854166667  6.9580078125 11.07421875  6.8115234375 11.25  C 6.9580078125 11.42578125  7.03125 11.6341145833333  7.03125 11.875  C 7.03125 12.2135416666667  6.8994140625 12.4772135416667  6.6357421875 12.666015625  C 6.7119140625 12.8157552083333  6.75 12.96875  6.75 13.125  C 6.75 13.4244791666667  6.65771484375 13.6555989583333  6.47314453125 13.818359375  C 6.28857421875 13.9811197916667  6.0615234375 14.0625  5.7919921875 14.0625  C 5.6748046875 14.3489583333333  5.4990234375 14.5768229166667  5.2646484375 14.74609375  C 5.0302734375 14.9153645833333  4.775390625 15  4.5 15  C 4.224609375 15  3.9697265625 14.9153645833333  3.7353515625 14.74609375  C 3.5009765625 14.5768229166667  3.3251953125 14.3489583333333  3.2080078125 14.0625  C 2.9384765625 14.0625  2.71142578125 13.9811197916667  2.52685546875 13.818359375  C 2.34228515625 13.6555989583333  2.25 13.4244791666667  2.25 13.125  C 2.25 12.96875  2.2880859375 12.8157552083333  2.3642578125 12.666015625  C 2.1005859375 12.4772135416667  1.96875 12.2135416666667  1.96875 11.875  C 1.96875 11.6341145833333  2.0419921875 11.42578125  2.1884765625 11.25  C 2.0419921875 11.07421875  1.96875 10.8658854166667  1.96875 10.625  C 1.96875 10.2734375  2.1064453125 10.0065104166667  2.3818359375 9.82421875  C 2.3583984375 9.49869791666666  2.2587890625 9.14876302083333  2.0830078125 8.7744140625  C 1.9072265625 8.40006510416666  1.73291015625 8.08919270833333  1.56005859375 7.841796875  C 1.38720703125 7.59440104166667  1.1689453125 7.31119791666667  0.9052734375 6.9921875  C 0.3017578125 6.25651041666667  0 5.38411458333333  0 4.375  C 0 3.73046875  0.13037109375 3.1298828125  0.39111328125 2.5732421875  C 0.65185546875 2.0166015625  0.99462890625 1.55436197916666  1.41943359375 1.1865234375  C 1.84423828125 0.818684895833332  2.32470703125 0.528971354166665  2.86083984375 0.317382812499999  C 3.39697265625 0.105794270833333  3.943359375 0  4.5 0  C 5.056640625 0  5.60302734375 0.105794270833333  6.13916015625 0.317382812499999  C 6.67529296875 0.528971354166665  7.15576171875 0.818684895833332  7.58056640625 1.1865234375  C 8.00537109375 1.55436197916666  8.34814453125 2.0166015625  8.60888671875 2.5732421875  Z " fill-rule="nonzero" fill="#000000" stroke="none" transform="matrix(1 0 0 1 1194 364 )" />
  </g>
</svg>