<?xml version="1.0" encoding="utf-8"?>
<svg version="1.1" xmlns:xlink="http://www.w3.org/1999/xlink" width="18px" height="19px" xmlns="http://www.w3.org/2000/svg">
  <g transform="matrix(1 0 0 1 -953 -973 )">
    <path d="M 4.59194711538462 14.3324652777778  C 4.86237980769231 14.607349537037  4.99759615384615 14.9390432098765  4.99759615384615 15.3275462962963  C 4.99759615384615 15.716049382716  4.86237980769231 16.0477430555556  4.59194711538462 16.3226273148148  C 4.32151442307692 16.5975115740741  3.99519230769231 16.7349537037037  3.61298076923077 16.7349537037037  C 3.23798076923077 16.7349537037037  2.91346153846154 16.5956790123457  2.63942307692308 16.3171296296296  C 2.36538461538462 16.0385802469136  2.22836538461538 15.7087191358025  2.22836538461538 15.3275462962963  C 2.22836538461538 14.9390432098765  2.36358173076923 14.607349537037  2.63401442307692 14.3324652777778  C 2.90444711538462 14.0575810185185  3.23076923076923 13.9201388888889  3.61298076923077 13.9201388888889  C 3.99519230769231 13.9201388888889  4.32151442307692 14.0575810185185  4.59194711538462 14.3324652777778  Z M 9.97896634615385 16.5975115740741  C 10.2493990384615 16.8723958333333  10.3846153846154 17.2040895061728  10.3846153846154 17.5925925925926  C 10.3846153846154 17.9810956790123  10.2493990384615 18.3127893518519  9.97896634615385 18.5876736111111  C 9.70853365384615 18.8625578703704  9.38221153846154 19  9 19  C 8.61778846153846 19  8.29146634615385 18.8625578703704  8.02103365384615 18.5876736111111  C 7.75060096153846 18.3127893518519  7.61538461538462 17.9810956790123  7.61538461538462 17.5925925925926  C 7.61538461538462 17.2040895061728  7.75060096153846 16.8723958333333  8.02103365384615 16.5975115740741  C 8.29146634615385 16.3226273148148  8.61778846153846 16.1851851851852  9 16.1851851851852  C 9.38221153846154 16.1851851851852  9.70853365384615 16.3226273148148  9.97896634615385 16.5975115740741  Z M 2.36358173076923 8.85677083333333  C 2.63401442307692 9.13165509259259  2.76923076923077 9.4633487654321  2.76923076923077 9.85185185185185  C 2.76923076923077 10.2403549382716  2.63401442307692 10.5720486111111  2.36358173076923 10.8469328703704  C 2.09314903846154 11.1218171296296  1.76682692307692 11.2592592592593  1.38461538461538 11.2592592592593  C 1.00240384615385 11.2592592592593  0.676081730769231 11.1218171296296  0.405649038461538 10.8469328703704  C 0.135216346153846 10.5720486111111  0 10.2403549382716  0 9.85185185185185  C 0 9.4633487654321  0.135216346153846 9.13165509259259  0.405649038461538 8.85677083333333  C 0.676081730769231 8.58188657407407  1.00240384615385 8.44444444444444  1.38461538461538 8.44444444444444  C 1.76682692307692 8.44444444444444  2.09314903846154 8.58188657407407  2.36358173076923 8.85677083333333  Z M 15.3659855769231 14.3324652777778  C 15.6364182692308 14.607349537037  15.7716346153846 14.9390432098765  15.7716346153846 15.3275462962963  C 15.7716346153846 15.7087191358025  15.6346153846154 16.0385802469136  15.3605769230769 16.3171296296296  C 15.0865384615385 16.5956790123457  14.7620192307692 16.7349537037037  14.3870192307692 16.7349537037037  C 14.0048076923077 16.7349537037037  13.6784855769231 16.5975115740741  13.4080528846154 16.3226273148148  C 13.1376201923077 16.0477430555556  13.0024038461538 15.716049382716  13.0024038461538 15.3275462962963  C 13.0024038461538 14.9390432098765  13.1376201923077 14.607349537037  13.4080528846154 14.3324652777778  C 13.6784855769231 14.0575810185185  14.0048076923077 13.9201388888889  14.3870192307692 13.9201388888889  C 14.7692307692308 13.9201388888889  15.0955528846154 14.0575810185185  15.3659855769231 14.3324652777778  Z M 4.83533653846154 3.13368055555556  C 5.17427884615385 3.47820216049383  5.34375 3.89236111111111  5.34375 4.37615740740741  C 5.34375 4.85995370370371  5.17427884615385 5.27411265432098  4.83533653846154 5.61863425925926  C 4.49639423076923 5.96315586419753  4.08894230769231 6.13541666666667  3.61298076923077 6.13541666666667  C 3.13701923076923 6.13541666666667  2.72956730769231 5.96315586419753  2.390625 5.61863425925926  C 2.05168269230769 5.27411265432098  1.88221153846154 4.85995370370371  1.88221153846154 4.37615740740741  C 1.88221153846154 3.89236111111111  2.05168269230769 3.47820216049383  2.390625 3.13368055555556  C 2.72956730769231 2.78915895061728  3.13701923076923 2.61689814814815  3.61298076923077 2.61689814814815  C 4.08894230769231 2.61689814814815  4.49639423076923 2.78915895061728  4.83533653846154 3.13368055555556  Z M 17.5943509615385 8.85677083333333  C 17.8647836538462 9.13165509259259  18 9.4633487654321  18 9.85185185185185  C 18 10.2403549382716  17.8647836538462 10.5720486111111  17.5943509615385 10.8469328703704  C 17.3239182692308 11.1218171296296  16.9975961538462 11.2592592592593  16.6153846153846 11.2592592592593  C 16.2331730769231 11.2592592592593  15.9068509615385 11.1218171296296  15.6364182692308 10.8469328703704  C 15.3659855769231 10.5720486111111  15.2307692307692 10.2403549382716  15.2307692307692 9.85185185185185  C 15.2307692307692 9.4633487654321  15.3659855769231 9.13165509259259  15.6364182692308 8.85677083333333  C 15.9068509615385 8.58188657407407  16.2331730769231 8.44444444444444  16.6153846153846 8.44444444444444  C 16.9975961538462 8.44444444444444  17.3239182692308 8.58188657407407  17.5943509615385 8.85677083333333  Z M 10.4711538461538 0.615740740740741  C 10.875 1.02623456790123  11.0769230769231 1.52469135802469  11.0769230769231 2.11111111111111  C 11.0769230769231 2.69753086419753  10.875 3.19598765432099  10.4711538461538 3.60648148148148  C 10.0673076923077 4.01697530864197  9.57692307692308 4.22222222222222  9 4.22222222222222  C 8.42307692307692 4.22222222222222  7.93269230769231 4.01697530864197  7.52884615384615 3.60648148148148  C 7.125 3.19598765432099  6.92307692307692 2.69753086419753  6.92307692307692 2.11111111111111  C 6.92307692307692 1.52469135802469  7.125 1.02623456790123  7.52884615384615 0.615740740740741  C 7.93269230769231 0.205246913580248  8.42307692307692 0  9 0  C 9.57692307692308 0  10.0673076923077 0.205246913580248  10.4711538461538 0.615740740740741  Z M 16.0961538461538 2.63888888888889  C 16.5721153846154 3.12268518518519  16.8100961538462 3.70177469135802  16.8100961538462 4.37615740740741  C 16.8100961538462 5.05787037037037  16.5721153846154 5.6387924382716  16.0961538461538 6.11892361111111  C 15.6201923076923 6.59905478395062  15.0504807692308 6.83912037037037  14.3870192307692 6.83912037037037  C 13.7163461538462 6.83912037037037  13.1448317307692 6.59905478395062  12.6724759615385 6.11892361111111  C 12.2001201923077 5.6387924382716  11.9639423076923 5.05787037037037  11.9639423076923 4.37615740740741  C 11.9639423076923 3.70177469135802  12.2001201923077 3.12268518518519  12.6724759615385 2.63888888888889  C 13.1448317307692 2.15509259259259  13.7163461538462 1.91319444444444  14.3870192307692 1.91319444444444  C 15.0504807692308 1.91319444444444  15.6201923076923 2.15509259259259  16.0961538461538 2.63888888888889  Z " fill-rule="nonzero" fill="#000000" stroke="none" transform="matrix(1 0 0 1 953 973 )" />
  </g>
</svg>