<?xml version="1.0" encoding="utf-8"?>
<svg version="1.1" xmlns:xlink="http://www.w3.org/1999/xlink" width="22px" height="22px" xmlns="http://www.w3.org/2000/svg">
  <g transform="matrix(1 0 0 1 -1917 -307 )">
    <path d="M 16.37109375 10.6705729166667  C 16.45703125 10.7565104166667  16.5 10.8663194444444  16.5 11  C 16.5 11.1336805555556  16.45703125 11.2434895833333  16.37109375 11.3294270833333  L 11.7877604166667 15.9127604166667  C 11.7018229166667 15.9986979166667  11.5920138888889 16.0416666666667  11.4583333333333 16.0416666666667  C 11.3342013888889 16.0416666666667  11.2267795138889 15.9963107638889  11.1360677083333 15.9055989583333  C 11.0453559027778 15.8148871527778  11 15.7074652777778  11 15.5833333333333  L 11 12.8333333333333  L 5.95833333333333 12.8333333333333  C 5.83420138888889 12.8333333333333  5.72677951388889 12.7879774305556  5.63606770833333 12.697265625  C 5.54535590277778 12.6065538194444  5.5 12.4991319444444  5.5 12.375  L 5.5 9.625  C 5.5 9.50086805555555  5.54535590277778 9.39344618055555  5.63606770833333 9.302734375  C 5.72677951388889 9.21202256944445  5.83420138888889 9.16666666666667  5.95833333333333 9.16666666666667  L 11 9.16666666666667  L 11 6.41666666666667  C 11 6.28298611111111  11.04296875 6.17317708333333  11.12890625 6.08723958333333  C 11.21484375 6.00130208333333  11.3246527777778 5.95833333333333  11.4583333333333 5.95833333333333  C 11.5729166666667 5.95833333333333  11.6875 6.00607638888889  11.8020833333333 6.1015625  L 16.37109375 10.6705729166667  Z M 17.74609375 14.91015625  C 18.4431423611111 13.7165798611111  18.7916666666667 12.4131944444444  18.7916666666667 11  C 18.7916666666667 9.58680555555555  18.4431423611111 8.28342013888889  17.74609375 7.08984375  C 17.0490451388889 5.89626736111111  16.1037326388889 4.95095486111111  14.91015625 4.25390625  C 13.7165798611111 3.55685763888889  12.4131944444444 3.20833333333333  11 3.20833333333333  C 9.58680555555556 3.20833333333333  8.28342013888889 3.55685763888889  7.08984375 4.25390625  C 5.89626736111111 4.95095486111111  4.95095486111111 5.89626736111111  4.25390625 7.08984375  C 3.55685763888889 8.28342013888889  3.20833333333333 9.58680555555555  3.20833333333333 11  C 3.20833333333333 12.4131944444444  3.55685763888889 13.7165798611111  4.25390625 14.91015625  C 4.95095486111111 16.1037326388889  5.89626736111111 17.0490451388889  7.08984375 17.74609375  C 8.28342013888889 18.4431423611111  9.58680555555556 18.7916666666667  11 18.7916666666667  C 12.4131944444444 18.7916666666667  13.7165798611111 18.4431423611111  14.91015625 17.74609375  C 16.1037326388889 17.0490451388889  17.0490451388889 16.1037326388889  17.74609375 14.91015625  Z M 20.5247395833333 5.478515625  C 21.5082465277778 7.16384548611111  22 9.00434027777778  22 11  C 22 12.9956597222222  21.5082465277778 14.8361545138889  20.5247395833333 16.521484375  C 19.5412326388889 18.2068142361111  18.2068142361111 19.5412326388889  16.521484375 20.5247395833333  C 14.8361545138889 21.5082465277778  12.9956597222222 22  11 22  C 9.00434027777778 22  7.16384548611111 21.5082465277778  5.478515625 20.5247395833333  C 3.79318576388889 19.5412326388889  2.45876736111111 18.2068142361111  1.47526041666667 16.521484375  C 0.491753472222222 14.8361545138889  0 12.9956597222222  0 11  C 0 9.00434027777778  0.491753472222222 7.16384548611111  1.47526041666667 5.478515625  C 2.45876736111111 3.79318576388889  3.79318576388889 2.45876736111111  5.478515625 1.47526041666667  C 7.16384548611111 0.49175347222222  9.00434027777778 0  11 0  C 12.9956597222222 0  14.8361545138889 0.49175347222222  16.521484375 1.47526041666667  C 18.2068142361111 2.45876736111111  19.5412326388889 3.79318576388889  20.5247395833333 5.478515625  Z " fill-rule="nonzero" fill="#aaaaaa" stroke="none" transform="matrix(1 0 0 1 1917 307 )" />
  </g>
</svg>