<?xml version="1.0" encoding="utf-8"?>
<svg version="1.1" xmlns:xlink="http://www.w3.org/1999/xlink" width="16px" height="19px" xmlns="http://www.w3.org/2000/svg">
  <g transform="matrix(1 0 0 1 -415 -128 )">
    <path d="M 15.7361111111111 7.52463942307692  C 15.912037037037 7.66927083333333  16 7.84054487179487  16 8.03846153846154  L 16 9.5  C 16 11.1822916666667  15.3171296296296 12.6457331730769  13.9513888888889 13.8903245192308  C 12.5856481481481 15.1349158653846  10.8981481481481 15.8485576923077  8.88888888888889 16.03125  L 8.88888888888889 17.5384615384615  L 12.4444444444444 17.5384615384615  C 12.6851851851852 17.5384615384615  12.8935185185185 17.6107772435897  13.0694444444444 17.7554086538462  C 13.2453703703704 17.9000400641026  13.3333333333333 18.0713141025641  13.3333333333333 18.2692307692308  C 13.3333333333333 18.4671474358974  13.2453703703704 18.638421474359  13.0694444444444 18.7830528846154  C 12.8935185185185 18.9276842948718  12.6851851851852 19  12.4444444444444 19  L 3.55555555555556 19  C 3.31481481481481 19  3.10648148148148 18.9276842948718  2.93055555555556 18.7830528846154  C 2.75462962962963 18.638421474359  2.66666666666667 18.4671474358974  2.66666666666667 18.2692307692308  C 2.66666666666667 18.0713141025641  2.75462962962963 17.9000400641026  2.93055555555556 17.7554086538462  C 3.10648148148148 17.6107772435897  3.31481481481481 17.5384615384615  3.55555555555556 17.5384615384615  L 7.11111111111111 17.5384615384615  L 7.11111111111111 16.03125  C 5.10185185185185 15.8485576923077  3.41435185185185 15.1349158653846  2.04861111111111 13.8903245192308  C 0.68287037037037 12.6457331730769  0 11.1822916666667  0 9.5  L 0 8.03846153846154  C 0 7.84054487179487  0.087962962962963 7.66927083333333  0.263888888888889 7.52463942307692  C 0.439814814814815 7.38000801282051  0.648148148148148 7.30769230769231  0.888888888888889 7.30769230769231  C 1.12962962962963 7.30769230769231  1.33796296296296 7.38000801282051  1.51388888888889 7.52463942307692  C 1.68981481481481 7.66927083333333  1.77777777777778 7.84054487179487  1.77777777777778 8.03846153846154  L 1.77777777777778 9.5  C 1.77777777777778 10.9082532051282  2.38657407407407 12.1128806089744  3.60416666666667 13.1138822115385  C 4.82175925925926 14.1148838141026  6.28703703703704 14.6153846153846  8 14.6153846153846  C 9.71296296296296 14.6153846153846  11.1782407407407 14.1148838141026  12.3958333333333 13.1138822115385  C 13.6134259259259 12.1128806089744  14.2222222222222 10.9082532051282  14.2222222222222 9.5  L 14.2222222222222 8.03846153846154  C 14.2222222222222 7.84054487179487  14.3101851851852 7.66927083333333  14.4861111111111 7.52463942307692  C 14.662037037037 7.38000801282051  14.8703703703704 7.30769230769231  15.1111111111111 7.30769230769231  C 15.3518518518519 7.30769230769231  15.5601851851852 7.38000801282051  15.7361111111111 7.52463942307692  Z M 11.1388888888889 1.07331730769231  C 12.0092592592593 1.78886217948718  12.4444444444444 2.64903846153846  12.4444444444444 3.65384615384615  L 12.4444444444444 9.5  C 12.4444444444444 10.5048076923077  12.0092592592593 11.364983974359  11.1388888888889 12.0805288461538  C 10.2685185185185 12.7960737179487  9.22222222222222 13.1538461538462  8 13.1538461538462  C 6.77777777777778 13.1538461538462  5.73148148148148 12.7960737179487  4.86111111111111 12.0805288461538  C 3.99074074074074 11.364983974359  3.55555555555556 10.5048076923077  3.55555555555556 9.5  L 3.55555555555556 3.65384615384615  C 3.55555555555556 2.64903846153846  3.99074074074074 1.78886217948718  4.86111111111111 1.07331730769231  C 5.73148148148148 0.357772435897438  6.77777777777778 0  8 0  C 9.22222222222222 0  10.2685185185185 0.357772435897438  11.1388888888889 1.07331730769231  Z " fill-rule="nonzero" fill="#ffffff" stroke="none" transform="matrix(1 0 0 1 415 128 )" />
  </g>
</svg>