<?xml version="1.0" encoding="utf-8"?>
<svg version="1.1" xmlns:xlink="http://www.w3.org/1999/xlink" width="13px" height="14px" xmlns="http://www.w3.org/2000/svg">
  <g transform="matrix(1 0 0 1 -1369 -210 )">
    <path d="M 12.6732336956522 6.19127086007702  C 12.8910778985507 6.40094137783483  13 6.67051775780916  13 7  C 13 7.32349165596919  12.8910778985507 7.59606332905434  12.6732336956522 7.81771501925546  L 6.92391304347826 13.6675224646983  C 6.69429347826087 13.8891741548994  6.42640398550725 14  6.12024456521739 14  C 5.81997282608696 14  5.55502717391304 13.8891741548994  5.32540760869565 13.6675224646983  L 4.66304347826087 12.9935815147625  C 4.4393115942029 12.7659392383398  4.32744565217391 12.4933675652546  4.32744565217391 12.1758664955071  C 4.32744565217391 11.8583654257595  4.4393115942029 11.5857937526744  4.66304347826087 11.3581514762516  L 7.25067934782609 8.72528883183569  L 1.03328804347826 8.72528883183569  C 0.727128623188406 8.72528883183569  0.478374094202899 8.61296534017972  0.287024456521739 8.38831835686778  C 0.0956748188405797 8.16367137355584  0 7.8925973470261  0 7.57509627727856  L 0 6.42490372272144  C 0 6.1074026529739  0.0956748188405797 5.83632862644416  0.287024456521739 5.61168164313222  C 0.478374094202899 5.38703465982028  0.727128623188406 5.27471116816431  1.03328804347826 5.27471116816431  L 7.25067934782609 5.27471116816431  L 4.66304347826087 2.63286264441592  C 4.4393115942029 2.41720154043646  4.32744565217391 2.14762516046213  4.32744565217391 1.82413350449294  C 4.32744565217391 1.50064184852375  4.4393115942029 1.23106546854942  4.66304347826087 1.01540436456996  L 5.32540760869565 0.341463414634147  C 5.54913949275362 0.113821138211381  5.81408514492754 0  6.12024456521739 0  C 6.43229166666667 0  6.70018115942029 0.113821138211381  6.92391304347826 0.341463414634147  L 12.6732336956522 6.19127086007702  Z " fill-rule="nonzero" fill="#7f7f7f" stroke="none" transform="matrix(1 0 0 1 1369 210 )" />
  </g>
</svg>