<?xml version="1.0" encoding="utf-8"?>
<svg version="1.1" xmlns:xlink="http://www.w3.org/1999/xlink" width="8px" height="8px" xmlns="http://www.w3.org/2000/svg">
  <g transform="matrix(1 0 0 1 -1371 -440 )">
    <path d="M 1375 440  C 1377.24 440  1379 441.76  1379 444  C 1379 446.24  1377.24 448  1375 448  C 1372.76 448  1371 446.24  1371 444  C 1371 441.76  1372.76 440  1375 440  Z " fill-rule="nonzero" fill="#ffffff" stroke="none" />
    <path d="M 1375 440.5  C 1376.96 440.5  1378.5 442.04  1378.5 444  C 1378.5 445.96  1376.96 447.5  1375 447.5  C 1373.04 447.5  1371.5 445.96  1371.5 444  C 1371.5 442.04  1373.04 440.5  1375 440.5  Z " stroke-width="1" stroke="#797979" fill="none" />
  </g>
</svg>