<?xml version="1.0" encoding="utf-8"?>
<svg version="1.1" xmlns:xlink="http://www.w3.org/1999/xlink" width="12px" height="12px" xmlns="http://www.w3.org/2000/svg">
  <g transform="matrix(1 0 0 1 -876 -390 )">
    <path d="M 11.6983695652174 5.30680359435173  C 11.8994565217391 5.48652118100128  12 5.71758664955071  12 6  C 12 6.27727856225931  11.8994565217391 6.51091142490372  11.6983695652174 6.70089858793325  L 6.39130434782609 11.7150192554557  C 6.17934782608696 11.9050064184852  5.9320652173913 12  5.64945652173913 12  C 5.37228260869565 12  5.12771739130435 11.9050064184852  4.91576086956522 11.7150192554557  L 4.30434782608696 11.1373555840822  C 4.09782608695652 10.9422336328626  3.9945652173913 10.7086007702182  3.9945652173913 10.4364569961489  C 3.9945652173913 10.1643132220796  4.09782608695652 9.93068035943517  4.30434782608696 9.73555840821566  L 6.6929347826087 7.4788189987163  L 0.953804347826087 7.4788189987163  C 0.671195652173913 7.4788189987163  0.441576086956522 7.38254172015404  0.264945652173913 7.18998716302952  C 0.0883152173913043 6.99743260590501  0 6.76508344030809  0 6.49293966623877  L 0 5.50706033376123  C 0 5.23491655969191  0.0883152173913043 5.00256739409499  0.264945652173913 4.81001283697048  C 0.441576086956522 4.61745827984596  0.671195652173913 4.5211810012837  0.953804347826087 4.5211810012837  L 6.6929347826087 4.5211810012837  L 4.30434782608696 2.25673940949936  C 4.09782608695652 2.07188703465982  3.9945652173913 1.8408215661104  3.9945652173913 1.56354300385109  C 3.9945652173913 1.28626444159178  4.09782608695652 1.05519897304236  4.30434782608696 0.870346598202824  L 4.91576086956522 0.292682926829269  C 5.12228260869565 0.0975609756097553  5.36684782608696 0  5.64945652173913 0  C 5.9375 0  6.18478260869565 0.0975609756097553  6.39130434782609 0.292682926829269  L 11.6983695652174 5.30680359435173  Z " fill-rule="nonzero" fill="#aaaaaa" stroke="none" transform="matrix(1 0 0 1 876 390 )" />
  </g>
</svg>