<?xml version="1.0" encoding="utf-8"?>
<svg version="1.1" xmlns:xlink="http://www.w3.org/1999/xlink" width="24px" height="20px" xmlns="http://www.w3.org/2000/svg">
  <g transform="matrix(1 0 0 1 -617 -129 )">
    <path d="M 9.76530612244898 18.2890625  C 9.75510204081633 18.3463541666667  9.76530612244898 18.4166666666667  9.79591836734694 18.5  C 9.79591836734694 18.5416666666667  9.80102040816327 18.6458333333333  9.81122448979592 18.8125  C 9.82142857142857 18.9791666666667  9.82397959183674 19.1171875  9.81887755102041 19.2265625  C 9.81377551020408 19.3359375  9.7984693877551 19.4583333333333  9.77295918367347 19.59375  C 9.74744897959184 19.7291666666667  9.69642857142857 19.8307291666667  9.61989795918367 19.8984375  C 9.54336734693878 19.9661458333333  9.43877551020408 20  9.30612244897959 20  L 4.40816326530612 20  C 3.19387755102041 20  2.15561224489796 19.5598958333333  1.29336734693878 18.6796875  C 0.431122448979592 17.7994791666667  0 16.7395833333333  0 15.5  L 0 4.5  C 0 3.26041666666666  0.431122448979592 2.20052083333333  1.29336734693878 1.3203125  C 2.15561224489796 0.440104166666664  3.19387755102041 0  4.40816326530612 0  L 9.30612244897959 0  C 9.43877551020408 0  9.55357142857143 0.0494791666666639  9.65051020408163 0.1484375  C 9.74744897959184 0.247395833333333  9.79591836734694 0.364583333333333  9.79591836734694 0.5  C 9.79591836734694 0.541666666666665  9.80102040816327 0.645833333333332  9.81122448979592 0.8125  C 9.82142857142857 0.979166666666664  9.82397959183674 1.1171875  9.81887755102041 1.2265625  C 9.81377551020408 1.3359375  9.7984693877551 1.45833333333333  9.77295918367347 1.59375  C 9.74744897959184 1.72916666666666  9.69642857142857 1.83072916666666  9.61989795918367 1.8984375  C 9.54336734693878 1.96614583333333  9.43877551020408 2  9.30612244897959 2  L 4.40816326530612 2  C 3.73469387755102 2  3.15816326530612 2.24479166666666  2.67857142857143 2.734375  C 2.19897959183673 3.22395833333333  1.95918367346939 3.8125  2 4.5  L 2 15.5  C 1.95918367346939 16.1875  2.19897959183673 16.7760416666667  2.67857142857143 17.265625  C 3.15816326530612 17.7552083333333  3.73469387755102 18  4.40816326530612 18  L 8.81632653061225 18  L 8.98469387755102 18  L 9.18367346938775 18  C 9.18367346938775 18  9.24234693877551 18.0052083333333  9.35969387755102 18.015625  C 9.47704081632653 18.0260416666667  9.53571428571428 18.0416666666667  9.53571428571428 18.0625  C 9.53571428571428 18.0833333333333  9.5765306122449 18.1119791666667  9.65816326530612 18.1484375  C 9.73979591836735 18.1848958333333  9.77551020408163 18.2317708333333  9.76530612244898 18.2890625  Z M 23.7091836734694 9.296875  C 23.9030612244898 9.49479166666667  24 9.72916666666667  24 10  C 24 10.2708333333333  23.9030612244898 10.5052083333333  23.7091836734694 10.703125  L 15.3826530612245 19.203125  C 15.1887755102041 19.4010416666667  14.9591836734694 19.5  14.6938775510204 19.5  C 14.4285714285714 19.5  14.1989795918367 19.4010416666667  14.0051020408163 19.203125  C 13.8112244897959 19.0052083333333  13.7142857142857 18.7708333333333  13.7142857142857 18.5  L 13.7142857142857 14  L 6.85714285714286 14  C 6.59183673469388 14  6.36224489795918 13.9010416666667  6.16836734693878 13.703125  C 5.97448979591837 13.5052083333333  5.87755102040816 13.2708333333333  5.87755102040816 13  L 5.87755102040816 7  C 5.87755102040816 6.72916666666666  5.97448979591837 6.49479166666666  6.16836734693878 6.296875  C 6.36224489795918 6.09895833333333  6.59183673469388 6  6.85714285714286 6  L 13.7142857142857 6  L 13.7142857142857 1.5  C 13.7142857142857 1.22916666666666  13.8112244897959 0.994791666666663  14.0051020408163 0.796874999999999  C 14.1989795918367 0.598958333333333  14.4285714285714 0.5  14.6938775510204 0.5  C 14.9591836734694 0.5  15.1887755102041 0.598958333333333  15.3826530612245 0.796874999999999  L 23.7091836734694 9.296875  Z " fill-rule="nonzero" fill="#000000" stroke="none" transform="matrix(1 0 0 1 617 129 )" />
  </g>
</svg>