<?xml version="1.0" encoding="utf-8"?>
<svg version="1.1" xmlns:xlink="http://www.w3.org/1999/xlink" width="25px" height="20px" xmlns="http://www.w3.org/2000/svg">
  <g transform="matrix(1 0 0 1 -1901 -2422 )">
    <path d="M 20.8659049909802 10.9801136363636  C 21.0663459611145 11.0558712121212  21.1665664461816 11.1931818181818  21.1665664461816 11.3920454545455  L 21.1665664461816 15.9090909090909  C 21.1665664461816 17.0359848484848  20.7431348967729 17.9995265151515  19.8962717979555 18.7997159090909  C 19.0494086991381 19.5999053030303  18.0296652635799 20  16.8370414912808 20  L 4.32952495490078 20  C 3.13690118260172 20  2.1171577470435 19.5999053030303  1.2702946482261 18.7997159090909  C 0.423431549408699 17.9995265151515  0 17.0359848484848  0 15.9090909090909  L 0 4.09090909090909  C 0 2.96401515151515  0.423431549408699 2.00047348484848  1.2702946482261 1.20028409090909  C 2.1171577470435 0.400094696969695  3.13690118260172 0  4.32952495490078 0  L 16.8370414912808 0  C 17.4684305472038 0  18.0547203848467 0.118371212121211  18.5959110042093 0.355113636363635  C 18.74624173181 0.421401515151514  18.8364401683704 0.53030303030303  18.8665063138906 0.681818181818181  C 18.8965724594107 0.84280303030303  18.8514732411305 0.980113636363635  18.7312086590499 1.09375  L 17.9945880938064 1.78977272727273  C 17.8943676087392 1.8844696969697  17.779114050912 1.93181818181818  17.6488274203247 1.93181818181818  C 17.6187612748046 1.93181818181818  17.5736620565244 1.92234848484848  17.5135297654841 1.90340909090909  C 17.2830226498296 1.84659090909091  17.0575265584285 1.81818181818182  16.8370414912808 2  L 4.32952495490078 2  C 3.66806975345761 1.81818181818182  3.10182401282822 2.0407196969697  2.63078773301263 2.48579545454545  C 2.15975145319703 2.93087121212121  1.92423331328924 3.46590909090909  2 4.09090909090909  L 2 15.9090909090909  C 1.92423331328924 16.5340909090909  2.15975145319703 17.0691287878788  2.63078773301263 17.5142045454545  C 3.10182401282822 17.9592803030303  3.66806975345761 18.1818181818182  4.32952495490078 18  L 16.8370414912808 18  C 17.498496692724 18.1818181818182  18.0647424333534 17.9592803030303  18.535778713169 17.5142045454545  C 19.0068149929846 17.0691287878788  19.2423331328924 16.5340909090909  19.2423331328924 15.9090909090909  L 19.2423331328924 12.3011363636364  C 19.2423331328924 12.1780303030303  19.2874323511726 12.0738636363636  19.377630787733 11.9886363636364  L 20.3397474443776 11.0795454545455  C 20.4399679294448 10.9848484848485  20.555221487272 10.9375  20.6855081178593 10.9375  C 20.7456404088996 10.9375  20.8057726999399 10.9517045454545  20.8659049909802 10.9801136363636  Z M 25 3.63636363636364  C 25 3.94886363636364  24.8797354179194 4.21875  24.6392062537583 4.44602272727273  L 12.4022850270595 16.0085227272727  C 12.1617558628984 16.2357954545455  11.876127480457 16.3494318181818  11.5453998797354 16.3494318181818  C 11.2146722790138 16.3494318181818  10.9290438965725 16.2357954545455  10.6885147324113 16.0085227272727  L 4.22429344558028 9.90056818181818  C 3.98376428141912 9.67329545454545  3.86349969933854 9.40340909090909  3.86349969933854 9.09090909090909  C 3.86349969933854 8.77840909090909  3.98376428141912 8.50852272727272  4.22429344558028 8.28125  L 5.87793144918821 6.71875  C 6.11846061334937 6.49147727272727  6.40408899579074 6.37784090909091  6.73481659651233 6.37784090909091  C 7.06554419723392 6.37784090909091  7.35117257967529 6.49147727272727  7.59170174383644 6.71875  L 11.5453998797354 10.4545454545455  L 21.2717979555021 1.26420454545455  C 21.5123271196633 1.03693181818182  21.7979555021046 0.923295454545454  22.1286831028262 0.923295454545454  C 22.4594107035478 0.923295454545454  22.7450390859892 1.03693181818182  22.9855682501503 1.26420454545455  L 24.6392062537583 2.82670454545455  C 24.8797354179194 3.05397727272727  25 3.32386363636364  25 3.63636363636364  Z " fill-rule="nonzero" fill="#000000" stroke="none" transform="matrix(1 0 0 1 1901 2422 )" />
  </g>
</svg>