<?xml version="1.0" encoding="utf-8"?>
<svg version="1.1" xmlns:xlink="http://www.w3.org/1999/xlink" width="197px" height="197px" xmlns="http://www.w3.org/2000/svg">
  <g transform="matrix(1 0 0 1 -176 -143 )">
    <path d="M 274.5 143  C 329.66 143  373 186.34  373 241.5  C 373 296.66  329.66 340  274.5 340  C 219.34 340  176 296.66  176 241.5  C 176 186.34  219.34 143  274.5 143  Z " fill-rule="nonzero" fill="#ffffff" stroke="none" />
    <path d="M 274.5 143.5  C 329.38 143.5  372.5 186.62  372.5 241.5  C 372.5 296.38  329.38 339.5  274.5 339.5  C 219.62 339.5  176.5 296.38  176.5 241.5  C 176.5 186.62  219.62 143.5  274.5 143.5  Z " stroke-width="1" stroke="#7f7f7f" fill="none" />
  </g>
</svg>