<?xml version="1.0" encoding="utf-8"?>
<svg version="1.1" xmlns:xlink="http://www.w3.org/1999/xlink" width="144px" height="144px" xmlns="http://www.w3.org/2000/svg">
  <g transform="matrix(1 0 0 1 -203 -170 )">
    <path d="M 275 170  C 315.32 170  347 201.68  347 242  C 347 282.32  315.32 314  275 314  C 234.68 314  203 282.32  203 242  C 203 201.68  234.68 170  275 170  Z " fill-rule="nonzero" fill="#ffffff" stroke="none" />
    <path d="M 275 170.5  C 315.04 170.5  346.5 201.96  346.5 242  C 346.5 282.04  315.04 313.5  275 313.5  C 234.96 313.5  203.5 282.04  203.5 242  C 203.5 201.96  234.96 170.5  275 170.5  Z " stroke-width="1" stroke="#d7d7d7" fill="none" />
  </g>
</svg>