<?xml version="1.0" encoding="utf-8"?>
<svg version="1.1" xmlns:xlink="http://www.w3.org/1999/xlink" width="14px" height="23px" xmlns="http://www.w3.org/2000/svg">
  <g transform="matrix(1 0 0 1 -166 -577 )">
    <path d="M 9.5498046875 5.36067708333333  C 9.8916015625 5.74001736111111  10.0625 6.18923611111111  10.0625 6.70833333333333  C 10.0625 6.83810763888889  10.0192057291667 6.95041232638889  9.9326171875 7.04524739583333  C 9.84602864583333 7.14008246527778  9.74348958333333 7.1875  9.625 7.1875  C 9.50651041666667 7.1875  9.40397135416667 7.14008246527778  9.3173828125 7.04524739583333  C 9.23079427083333 6.95041232638889  9.1875 6.83810763888889  9.1875 6.70833333333333  C 9.1875 6.24913194444444  8.94140625 5.89474826388889  8.44921875 5.64518229166667  C 7.95703125 5.39561631944444  7.47395833333333 5.27083333333333  7 5.27083333333333  C 6.88151041666667 5.27083333333333  6.77897135416667 5.22341579861111  6.6923828125 5.12858072916667  C 6.60579427083333 5.03374565972222  6.5625 4.92144097222222  6.5625 4.79166666666667  C 6.5625 4.66189236111111  6.60579427083333 4.54958767361111  6.6923828125 4.45475260416667  C 6.77897135416667 4.35991753472222  6.88151041666667 4.3125  7 4.3125  C 7.45572916666667 4.3125  7.9091796875 4.39236111111111  8.3603515625 4.55208333333333  C 8.8115234375 4.71180555555555  9.2080078125 4.98133680555555  9.5498046875 5.36067708333333  Z M 11.3203125 9.40364583333333  C 11.9401041666667 8.61501736111111  12.25 7.71657986111111  12.25 6.70833333333333  C 12.25 5.98958333333333  12.0927734375 5.32074652777778  11.7783203125 4.70182291666667  C 11.4638671875 4.08289930555555  11.0537109375 3.57628038194444  10.5478515625 3.18196614583333  C 10.0419921875 2.78765190972222  9.4814453125 2.47819010416667  8.8662109375 2.25358072916667  C 8.2509765625 2.02897135416667  7.62890625 1.91666666666667  7 1.91666666666667  C 6.37109375 1.91666666666667  5.7490234375 2.02897135416667  5.1337890625 2.25358072916667  C 4.5185546875 2.47819010416667  3.9580078125 2.78765190972222  3.4521484375 3.18196614583333  C 2.9462890625 3.57628038194444  2.5361328125 4.08289930555555  2.2216796875 4.70182291666667  C 1.9072265625 5.32074652777778  1.75 5.98958333333333  1.75 6.70833333333333  C 1.75 7.71657986111111  2.05989583333333 8.61501736111111  2.6796875 9.40364583333333  C 2.77083333333333 9.51345486111111  2.90983072916667 9.67816840277778  3.0966796875 9.89778645833333  C 3.28352864583333 10.1174045138889  3.42252604166667 10.2821180555556  3.513671875 10.3919270833333  C 4.68033854166667 11.9192708333333  5.32291666666667 13.4066840277778  5.44140625 14.8541666666667  L 8.55859375 14.8541666666667  C 8.67708333333333 13.4066840277778  9.31966145833333 11.9192708333333  10.486328125 10.3919270833333  C 10.5774739583333 10.2821180555556  10.7164713541667 10.1174045138889  10.9033203125 9.89778645833333  C 11.0901692708333 9.67816840277778  11.2291666666667 9.51345486111111  11.3203125 9.40364583333333  Z M 13.3916015625 3.94563802083333  C 13.7972005208333 4.79915364583333  14 5.72005208333333  14 6.70833333333333  C 14 8.25564236111111  13.5305989583333 9.59331597222222  12.591796875 10.7213541666667  C 12.181640625 11.2105034722222  11.8421223958333 11.6447482638889  11.5732421875 12.0240885416667  C 11.3043619791667 12.4034288194444  11.033203125 12.8800998263889  10.759765625 13.4541015625  C 10.486328125 14.0281032986111  10.3313802083333 14.5646701388889  10.294921875 15.0638020833333  C 10.7233072916667 15.3433159722222  10.9375 15.7526041666667  10.9375 16.2916666666667  C 10.9375 16.6610243055556  10.8235677083333 16.98046875  10.595703125 17.25  C 10.8235677083333 17.51953125  10.9375 17.8389756944444  10.9375 18.2083333333333  C 10.9375 18.7274305555556  10.732421875 19.1317274305556  10.322265625 19.4212239583333  C 10.4407552083333 19.6508246527778  10.5 19.8854166666667  10.5 20.125  C 10.5 20.5842013888889  10.3564453125 20.9385850694444  10.0693359375 21.1881510416667  C 9.7822265625 21.4377170138889  9.42903645833333 21.5625  9.009765625 21.5625  C 8.82747395833333 22.0017361111111  8.55403645833333 22.3511284722222  8.189453125 22.6106770833333  C 7.82486979166667 22.8702256944444  7.42838541666667 23  7 23  C 6.57161458333333 23  6.17513020833333 22.8702256944444  5.810546875 22.6106770833333  C 5.44596354166667 22.3511284722222  5.17252604166667 22.0017361111111  4.990234375 21.5625  C 4.57096354166667 21.5625  4.2177734375 21.4377170138889  3.9306640625 21.1881510416667  C 3.6435546875 20.9385850694444  3.5 20.5842013888889  3.5 20.125  C 3.5 19.8854166666667  3.55924479166667 19.6508246527778  3.677734375 19.4212239583333  C 3.267578125 19.1317274305556  3.0625 18.7274305555556  3.0625 18.2083333333333  C 3.0625 17.8389756944444  3.17643229166667 17.51953125  3.404296875 17.25  C 3.17643229166667 16.98046875  3.0625 16.6610243055556  3.0625 16.2916666666667  C 3.0625 15.7526041666667  3.27669270833333 15.3433159722222  3.705078125 15.0638020833333  C 3.66861979166667 14.5646701388889  3.513671875 14.0281032986111  3.240234375 13.4541015625  C 2.966796875 12.8800998263889  2.69563802083333 12.4034288194444  2.4267578125 12.0240885416667  C 2.15787760416667 11.6447482638889  1.818359375 11.2105034722222  1.408203125 10.7213541666667  C 0.469401041666667 9.59331597222222  0 8.25564236111111  0 6.70833333333333  C 0 5.72005208333333  0.202799479166667 4.79915364583333  0.6083984375 3.94563802083333  C 1.01399739583333 3.09212239583333  1.54720052083333 2.38335503472222  2.2080078125 1.8193359375  C 2.86881510416667 1.25531684027778  3.6162109375 0.811089409722219  4.4501953125 0.486653645833332  C 5.2841796875 0.162217881944443  6.13411458333333 0  7 0  C 7.86588541666667 0  8.7158203125 0.162217881944443  9.5498046875 0.486653645833332  C 10.3837890625 0.811089409722219  11.1311848958333 1.25531684027778  11.7919921875 1.8193359375  C 12.4527994791667 2.38335503472222  12.9860026041667 3.09212239583333  13.3916015625 3.94563802083333  Z " fill-rule="nonzero" fill="#7f7f7f" stroke="none" transform="matrix(1 0 0 1 166 577 )" />
  </g>
</svg>